# xmcd
# 
# Track frame offsets:
#     150
#     15067
#     27632
#     36307
#     48885
#     53120
#     59975
#     63275
#     70425
#     72995
#     84170
#     102812
#     116520
#     129957
#     136607
#     148315
#     163195
#     177327
#     188667
#     310365
# 
# Disc length: 4283
# 
# Revision: 1
# Processed by: cddbd v1.5.2PL0 Copyright (c) Steve Scherf et al.
# Submitted via: BonkEnc v1.0.8
# 
DISCID=1c10b914
DTITLE=Der Plan - Japlan
DYEAR=1985
DGENRE=German New Wave
TTITLE0=Ein Moment sind zwei Sekunden
TTITLE1=Der Regen tropft
TTITLE2=Tanzende Kakteen
TTITLE3=Fleissige Ameisen
TTITLE4=Sechs fingen an
TTITLE5=Das Insekt
TTITLE6=Denn alles war nur ein Trick
TTITLE7=Schwarzwald
TTITLE8=Schauet her
TTITLE9=Bubak
TTITLE10=Gummitwist
TTITLE11=Space Bob
TTITLE12=Sirius und Alpha Zentauri
TTITLE13=Rapwalz
TTITLE14=Alte Pizza
TTITLE15=Hey Baby Hop
TTITLE16=Glitzergleiter
TTITLE17=Junger Mann
TTITLE18=Gummitwist instrumental
TTITLE19=(secret track)
EXTD=YEAR: 1985
EXTT0=
EXTT1=
EXTT2=
EXTT3=
EXTT4=
EXTT5=
EXTT6=
EXTT7=
EXTT8=
EXTT9=
EXTT10=
EXTT11=
EXTT12=
EXTT13=
EXTT14=
EXTT15=
EXTT16=
EXTT17=
EXTT18=
EXTT19=
PLAYORDER=
